<?xml version="1.0" standalone="no"?>
<!DOCTYPE svg PUBLIC "-//W3C//DTD SVG 20010904//EN"
 "http://www.w3.org/TR/2001/REC-SVG-20010904/DTD/svg10.dtd">
<svg version="1.0" xmlns="http://www.w3.org/2000/svg"
 width="877.000000pt" height="376.000000pt" viewBox="0 0 877.000000 376.000000"
 preserveAspectRatio="xMidYMid meet">

<g transform="translate(0.000000,376.000000) scale(0.100000,-0.100000)"
fill="#000000" stroke="none">
<path d="M8285 3735 c-71 -7 -175 -13 -230 -14 -157 -2 -301 -49 -350 -116
-84 -115 -289 -415 -385 -565 -63 -99 -165 -257 -226 -352 -239 -372 -231
-355 -214 -474 14 -105 50 -207 127 -359 69 -137 106 -192 268 -400 38 -50
120 -156 180 -237 77 -102 119 -150 139 -157 40 -15 56 -14 50 4 -5 12 3 15
40 15 29 0 49 -5 52 -13 3 -8 18 -12 42 -10 83 7 192 25 270 45 87 22 106 20
79 -10 -19 -20 -22 -38 -9 -46 5 -3 62 12 128 33 65 21 152 49 192 60 57 17
72 26 68 37 -3 9 -6 23 -6 31 0 12 -8 14 -35 10 -26 -4 -35 -2 -35 8 0 7 9 16
19 20 26 8 83 73 76 86 -4 5 -13 9 -21 9 -17 0 -18 12 -3 27 14 14 -21 84 -56
111 -14 11 -25 29 -25 40 0 26 37 70 47 57 5 -6 26 -23 48 -39 22 -16 55 -43
74 -60 32 -30 33 -30 26 -6 -19 61 -87 137 -493 544 -238 238 -432 439 -432
447 0 8 47 67 103 131 56 64 122 142 147 173 25 31 68 77 95 102 28 26 113
108 190 182 77 75 161 153 188 174 26 21 47 45 47 52 0 23 71 147 104 183 17
19 43 40 59 48 24 13 27 13 27 -1 0 -9 -7 -30 -17 -48 -13 -26 -13 -30 -1 -20
8 7 17 11 19 8 4 -3 71 169 106 271 5 13 -181 35 -277 32 -36 0 -123 -7 -195
-13z"/>
<path d="M5719 3598 c-18 -35 -28 -38 -114 -37 -130 1 -125 2 -140 -33 -31
-77 -441 -1607 -470 -1758 -4 -19 -31 -138 -61 -265 -30 -126 -57 -240 -59
-253 -3 -12 -9 -22 -14 -22 -4 0 -25 28 -46 63 -21 34 -100 161 -175 282 -159
256 -340 553 -453 745 -44 74 -92 149 -107 165 -16 17 -72 109 -126 205 -104
187 -268 469 -327 561 l-36 56 -93 6 c-51 4 -161 10 -244 13 l-151 7 2 -94 c2
-66 6 -94 15 -97 10 -4 12 12 7 72 -6 87 1 98 51 72 29 -15 30 -17 21 -57 -12
-53 -16 -59 -38 -59 -16 0 -19 -17 -25 -184 -5 -152 -4 -192 9 -227 8 -24 15
-53 15 -64 1 -18 38 -97 40 -85 1 3 3 38 4 77 1 40 5 76 9 79 11 11 45 -39 51
-76 15 -99 57 -623 53 -670 l-4 -55 642 -635 c643 -636 680 -670 704 -632 3 6
56 18 116 27 61 9 139 21 175 27 36 5 92 13 125 17 45 5 71 15 105 39 204 148
281 201 298 206 10 4 27 15 37 26 16 18 17 20 2 20 -23 0 -21 24 2 41 12 9 42
86 86 224 37 116 85 265 107 332 37 117 303 683 328 698 5 3 10 15 10 26 0 10
4 27 10 37 28 50 125 366 116 381 -3 4 9 56 25 117 36 130 109 421 109 434 0
5 -7 7 -15 4 -19 -8 -19 -1 0 60 8 27 15 62 15 77 0 18 10 36 30 52 28 24 40
56 23 58 -5 0 -117 2 -250 4 -207 3 -243 2 -243 -11 0 -7 -6 -14 -12 -14 -7 0
-24 -3 -38 -7 -24 -6 -24 -6 -7 14 25 29 22 33 -33 33 -41 0 -51 -4 -61 -22z
m-1049 -2792 c0 -14 -4 -28 -10 -31 -5 -3 -10 0 -10 9 0 8 -3 21 -6 30 -4 11
-1 16 10 16 10 0 16 -9 16 -24z"/>
<path d="M6528 3588 c-1 -13 -2 -30 -3 -38 -1 -8 -5 -55 -9 -105 -11 -138 -35
-331 -53 -424 -15 -78 -15 -96 0 -250 10 -91 24 -254 32 -361 23 -299 23 -297
61 -340 19 -20 31 -39 29 -42 -10 -10 26 -31 62 -37 20 -3 38 -12 41 -20 4
-11 -7 -13 -56 -9 -60 6 -61 6 -49 -15 7 -12 13 -23 14 -25 0 -2 22 4 48 12
45 16 65 14 65 -4 0 -4 -22 -13 -50 -20 -27 -7 -50 -16 -50 -20 0 -5 26 -10
58 -12 49 -3 57 -6 57 -23 0 -13 -8 -21 -22 -23 -27 -4 -29 -15 -7 -36 29 -30
4 -38 -32 -11 -19 14 -34 22 -34 16 0 -6 8 -14 18 -20 13 -7 14 -13 5 -22 -17
-17 -5 -38 18 -32 11 3 19 0 19 -7 0 -6 -8 -14 -19 -17 -17 -4 -17 -9 -6 -62
14 -67 21 -81 41 -81 19 0 18 -19 -2 -27 -13 -5 -14 -17 -9 -72 12 -129 14
-136 46 -150 20 -9 29 -20 29 -37 0 -27 54 -93 66 -81 5 4 3 17 -4 27 -15 25
-15 30 2 30 8 0 16 6 19 13 7 21 47 -70 47 -107 0 -35 20 -56 53 -56 12 0 13
7 6 37 -9 42 -69 502 -93 713 -8 74 -22 236 -31 360 -15 210 -44 540 -80 895
-9 83 -18 194 -22 248 -3 53 -8 97 -10 97 -2 0 -16 -9 -31 -20 -23 -17 -35
-19 -67 -12 -37 7 -40 10 -43 45 -2 33 0 37 15 29 10 -5 42 -12 72 -15 l54 -6
-7 46 c-3 26 -10 51 -14 55 -4 4 -32 10 -62 14 -30 3 -62 10 -72 15 -27 14
-38 11 -40 -13z m42 -58 c0 -13 -5 -18 -15 -14 -8 4 -15 12 -15 20 0 8 7 14
15 14 8 0 15 -9 15 -20z m77 -1322 c13 -12 23 -30 23 -40 0 -29 -38 -22 -73
14 l-32 32 25 7 c14 4 27 7 29 8 3 1 15 -9 28 -21z m83 -559 c0 -24 -3 -30
-16 -25 -9 3 -20 6 -25 6 -5 0 -2 11 7 25 22 34 34 31 34 -6z m37 -216 c17
-16 43 -36 57 -46 38 -26 34 -47 -9 -47 -31 0 -37 5 -65 53 -43 76 -38 89 17
40z"/>
<path d="M6987 3547 c-20 -22 -39 -47 -43 -56 -3 -9 -8 -115 -9 -236 -3 -154
-8 -233 -18 -264 -19 -61 -26 -40 -16 44 11 85 8 94 -28 92 -28 -2 -28 -3 -31
-75 -2 -50 2 -83 12 -103 10 -20 13 -45 9 -78 -6 -55 9 -75 25 -33 14 37 49
159 58 202 3 19 10 41 15 50 5 8 25 71 44 140 20 68 48 149 62 180 14 30 29
65 34 78 5 12 15 22 22 22 20 0 57 43 49 56 -4 6 -39 13 -78 16 l-71 5 -36
-40z m-107 -462 c0 -8 -4 -15 -10 -15 -5 0 -10 7 -10 15 0 8 5 15 10 15 6 0
10 -7 10 -15z"/>
<path d="M8534 3328 l-19 -23 23 19 c12 11 22 21 22 23 0 8 -8 2 -26 -19z"/>
<path d="M2730 3301 c-8 -5 -34 -12 -57 -16 -24 -4 -45 -10 -48 -15 -3 -4 -18
-113 -35 -242 -27 -214 -62 -468 -91 -676 -14 -99 -22 -72 106 -377 262 -622
433 -1005 449 -1005 4 0 4 17 1 37 -3 21 -19 157 -36 303 -96 839 -223 1813
-253 1955 -3 11 -5 26 -5 33 -1 14 -10 15 -31 3z"/>
<path d="M1695 3107 c-10 -7 -25 -18 -33 -24 -7 -7 -14 -13 -15 -13 -2 0 -41
-5 -87 -11 l-85 -10 -78 -80 -78 -79 -129 0 c-74 0 -131 -4 -135 -10 -6 -10
-16 -144 -55 -737 -16 -243 -19 -335 -11 -420 5 -59 9 -134 8 -165 l-1 -56
-23 40 c-29 51 -212 511 -307 773 -18 50 -68 182 -110 295 -43 113 -79 211
-82 218 -3 10 -16 12 -52 8 -26 -4 -127 -13 -226 -21 -98 -8 -180 -15 -182
-17 -3 -4 77 -233 131 -373 19 -49 52 -139 74 -200 22 -60 56 -150 75 -199 20
-49 39 -102 41 -118 3 -16 12 -40 20 -52 8 -12 26 -54 39 -92 14 -38 33 -91
44 -119 90 -230 120 -308 197 -510 192 -501 268 -703 287 -760 37 -108 58 -99
50 20 -4 63 -2 76 12 81 9 4 19 4 22 1 3 -3 2 -46 -1 -96 -7 -80 -10 -91 -26
-91 -24 0 -24 3 10 -93 62 -170 67 -182 84 -185 9 -2 17 3 17 11 0 7 11 40 24
73 39 96 81 327 161 889 55 387 165 1268 165 1324 0 27 4 52 8 55 9 5 53 -50
116 -144 32 -49 36 -62 36 -120 0 -69 -33 -564 -50 -753 -6 -61 -19 -233 -30
-382 -11 -148 -22 -289 -24 -311 -5 -40 -4 -42 25 -48 40 -8 36 -35 -7 -56
-36 -17 -35 -12 -55 -270 -7 -85 -16 -159 -20 -164 -5 -5 -19 -2 -33 8 -25 16
-97 21 -127 8 -25 -11 -124 -101 -117 -107 3 -4 23 1 44 10 29 12 471 93 664
122 l35 5 -1 126 c-1 100 -10 180 -43 373 -22 135 -52 348 -66 475 -13 126
-31 285 -39 354 -26 214 -38 392 -26 404 20 20 34 -14 56 -141 13 -71 30 -166
39 -213 36 -196 65 -378 65 -416 0 -50 9 -64 187 -285 76 -94 151 -187 166
-207 122 -159 315 -384 335 -389 29 -7 95 12 112 32 10 13 9 19 -6 36 -27 30
-73 52 -100 46 -30 -5 -40 19 -13 33 21 12 103 -11 172 -47 18 -9 43 -13 63
-10 23 4 34 1 38 -9 3 -8 21 -21 41 -29 73 -31 125 -9 125 53 0 31 0 31 -50
30 -27 -1 -50 -5 -50 -10 0 -4 -5 -8 -11 -8 -6 0 -9 9 -6 19 3 12 -3 27 -14
37 -24 22 -24 30 2 37 18 5 20 11 15 32 -4 15 -18 43 -31 63 -13 20 -31 55
-39 77 -7 22 -60 139 -116 260 -104 224 -267 591 -413 925 -44 102 -98 226
-119 275 -48 109 -211 498 -338 808 -97 234 -101 240 -145 214z m-11 -1183
c-5 -26 -15 -49 -22 -52 -9 -3 -11 3 -7 20 3 12 7 39 9 58 3 19 5 37 5 40 1 2
6 -1 12 -7 8 -8 9 -26 3 -59z m1046 -1337 c0 -22 -37 -49 -62 -45 -34 5 -28
29 12 44 46 16 50 16 50 1z m-1070 -57 c0 -34 -26 -53 -68 -48 -38 4 -33 24
13 53 51 31 55 31 55 -5z m1154 -6 c25 -35 8 -54 -30 -33 -21 11 -28 11 -31 2
-7 -21 -43 -15 -43 6 0 13 9 21 30 26 16 4 32 11 35 16 9 14 19 10 39 -17z
m-1864 -99 c0 -8 -7 -15 -15 -15 -16 0 -20 12 -8 23 11 12 23 8 23 -8z m140
-15 c0 -5 -7 -10 -15 -10 -8 0 -15 5 -15 10 0 6 7 10 15 10 8 0 15 -4 15 -10z"/>
<path d="M6840 1145 c0 -10 10 -15 26 -15 22 0 25 2 14 15 -7 8 -19 15 -26 15
-8 0 -14 -7 -14 -15z"/>
</g>
</svg>
